<?xml version="1.0" standalone="no"?><!DOCTYPE svg PUBLIC "-//W3C//DTD SVG 1.1//EN" "http://www.w3.org/Graphics/SVG/1.1/DTD/svg11.dtd">

<svg class="icon" style="width: 1em; height: 1em;vertical-align: middle;fill: currentColor;overflow: hidden;" viewBox="0 0 1024 1024" version="1.1" xmlns="http://www.w3.org/2000/svg" p-id="1829"><path d="M771.8 98.2H253.1c-21.1 0-38.1 17-38.1 38V888c0 21 17.1 38 38.1 38h518.7c21.1 0 38.1-17 38.1-38V136.2c0.1-21-17-38-38.1-38z m-338.9 18H592v36.6H432.9v-36.6z m133.5 721.9h-35.5v41.4h-36.7v-41.4h-35.5v-36.6h35.5v-29.3h36.7v29.3h35.5v36.6z m187.3-164.5c0 20.2-18.8 36.6-42.1 36.6H315.9c-23.2 0-42.1-16.4-42.1-36.6V226.3c0-20.2 18.8-36.6 42.1-36.6h395.7c23.2 0 42.1 16.4 42.1 36.6v447.3z" p-id="1830"></path></svg>
