<?xml version="1.0" standalone="no"?><!DOCTYPE svg PUBLIC "-//W3C//DTD SVG 1.1//EN" "http://www.w3.org/Graphics/SVG/1.1/DTD/svg11.dtd">

<svg class="icon" style="width: 1em; height: 1em;vertical-align: middle;fill: currentColor;overflow: hidden;" viewBox="0 0 1024 1024" version="1.1" xmlns="http://www.w3.org/2000/svg" p-id="6401"><path d="M944.43385 795.804764 535.669072 390.779148c-0.592494-0.592494-1.407046-0.779759-2.033309-1.333368-0.147356-0.146333-0.186242-0.37146-0.333598-0.518816-14.543228-14.358009-37.97694-14.284331-52.373835 0.225127L75.942623 797.877983c-14.396895 14.544251-14.290471 37.938054 0.220011 52.341089 7.218402 7.139607 16.657378 10.731412 26.061562 10.731412 9.511631 0 19.061125-3.665483 26.279526-10.957563l379.226021-382.66433 384.590192 381.037273c7.218402 7.144724 16.616446 10.737552 26.055422 10.737552 9.550517 0 19.061125-3.665483 26.285666-10.957563C959.057919 833.637418 958.943308 810.201659 944.43385 795.804764L944.43385 795.804764zM944.43385 795.804764" p-id="6402"></path></svg>
